<svg width="26" height="25" viewBox="0 0 26 25" fill="none" xmlns="http://www.w3.org/2000/svg">
<rect width="25" height="25" transform="translate(0.5)" fill="#5E5E5E"/>
<path d="M17.8909 3.332H14.4154C13.7874 3.334 13.8109 4.27 14.4154 4.2645H17.8909V4.743H14.4154C13.7909 4.7375 13.8139 5.673 14.4154 5.6755H17.8909V6.1645H14.4154C13.7909 6.1645 13.8139 7.0995 14.4154 7.097H17.8909V7.563H14.4154C13.8039 7.5675 13.8139 8.5035 14.4154 8.5065H17.8909V8.9735H14.4154C13.8039 8.9715 13.8014 9.906 14.4154 9.906H17.8909V10.372H14.4154C13.8039 10.374 13.8014 11.3095 14.4154 11.305H17.8909V11.7825H14.4154C13.8039 11.777 13.8014 12.7115 14.4154 12.715H17.8909V13.18H14.4154C13.8039 13.1795 13.8139 14.116 14.4154 14.113H17.8909V23.1925C17.8929 24.576 19.9944 24.551 20.0004 23.1925V1.945C19.9944 1.313 19.4754 0.514 18.6214 0.5115H14.4154C13.7874 0.512 13.8109 1.448 14.4154 1.444L17.8909 1.4555V1.9205H14.4154C13.7884 1.9175 13.8119 2.853 14.4154 2.8535H17.8909V3.332ZM14.1764 19.429C14.1744 17.814 12.5004 16.077 10.5004 17.202V11.025L9.20688 0.8375C9.17988 0.568 8.95138 0.5045 8.79788 0.5C8.63938 0.5045 8.32188 0.568 8.28738 0.8375L7.00038 11.025V17.202C5.00038 16.077 3.38038 17.825 3.37988 19.4165C3.38038 20.8325 4.47038 21.9955 5.94538 21.992C7.43138 21.9955 8.50038 20.692 8.50038 19.4165V13H9.00038V19.4165C9.00038 20.8445 10.1064 21.9015 11.3354 21.9685C11.3149 22.7515 11.5704 23.8685 12.0514 24.3115C12.6154 24.8315 13.2869 24.1665 13.0114 23.625C12.7454 23.121 12.4844 22.8225 12.6964 21.722C13.5824 21.312 14.1744 20.449 14.1764 19.429ZM6.00238 20.6995C5.66523 20.6995 5.34188 20.5656 5.10347 20.3272C4.86507 20.0888 4.73113 19.7654 4.73113 19.4282C4.73113 19.0911 4.86507 18.7677 5.10347 18.5293C5.34188 18.2909 5.66523 18.157 6.00238 18.157C6.69538 18.161 7.25988 18.7295 7.26488 19.429C7.26346 19.7641 7.13024 20.0853 6.89401 20.323C6.65778 20.5607 6.3375 20.696 6.00238 20.6995ZM10.2879 19.429C10.289 19.0936 10.4222 18.7721 10.6586 18.534C10.8949 18.296 11.2155 18.1605 11.5509 18.157C11.8864 18.16 12.2072 18.2953 12.4436 18.5335C12.68 18.7716 12.8129 19.0934 12.8134 19.429C12.8129 19.7644 12.6799 20.0861 12.4435 20.324C12.2071 20.5619 11.8863 20.6969 11.5509 20.6995C11.2156 20.6965 10.8949 20.5614 10.6585 20.3236C10.4221 20.0858 10.2889 19.7643 10.2879 19.429Z" fill="#474747"/>
</svg>
