<svg width="25" height="25" viewBox="0 0 25 25" fill="none" xmlns="http://www.w3.org/2000/svg">
<g opacity="0.1">
<rect width="25" height="25" fill="white"/>
<path d="M8 19C6.9 19 6.01 19.9 6.01 21C6.01 22.1 6.9 23 8 23C9.1 23 10 22.1 10 21C10 19.9 9.1 19 8 19ZM18 19C16.9 19 16.01 19.9 16.01 21C16.01 22.1 16.9 23 18 23C19.1 23 20 22.1 20 21C20 19.9 19.1 19 18 19ZM16.55 14C17.3 14 17.96 13.59 18.3 12.97L21.88 6.48C21.9643 6.32843 22.0075 6.15747 22.0054 5.98406C22.0034 5.81064 21.956 5.64077 21.8681 5.49126C21.7803 5.34175 21.6549 5.21778 21.5043 5.13162C21.3538 5.04545 21.1834 5.00009 21.01 5H6.21L5.27 3H2V5H4L7.6 12.59L6.25 15.03C5.52 16.37 6.48 18 8 18H20V16H8L9.1 14H16.55ZM7.16 7H19.31L16.55 12H9.53L7.16 7Z" fill="#1E1D1D"/>
</g>
</svg>
