<svg width="25" height="25" viewBox="0 0 25 25" fill="none" xmlns="http://www.w3.org/2000/svg">
<g opacity="0.1">
<rect width="25" height="25" fill="#F7FAFF"/>
<path d="M16.3 3.5C15.3 2.5 14 2 12.8 2C11.6 2 10.2 2.5 9.3 3.5L3.5 9.1C1.5 11.1 1.5 14.2 3.5 16.2C5.5 18.2 8.6 18.2 10.6 16.2L16.3 10.5C18.2 8.6 18.2 5.4 16.3 3.5ZM14.9 9.1L12.1 11.9L8.5 8.4L4.1 12.8C4.1 12 4.3 11.1 5 10.5L10.7 4.8C11.2 4.3 12 4 12.7 4C13.4 4 14.2 4.3 14.8 4.8C16 6.1 16 7.9 14.9 9.1ZM19.7 7.1C19.7 7.9 19.5 8.6 19.3 9.4C20.3 10.6 20.3 12.4 19.2 13.5L16.4 16.3L14.9 14.8L12.1 17.6C10.8 18.9 9 19.6 7.3 19.6C7.5 19.9 7.7 20.2 8 20.5C10 22.5 13.1 22.5 15.1 20.5L20.8 14.8C22.8 12.8 22.8 9.7 20.8 7.7C20.3 7.5 20 7.3 19.7 7.1Z" fill="#1E1D1D"/>
</g>
</svg>
