<svg width="25" height="25" viewBox="0 0 25 25" fill="none" xmlns="http://www.w3.org/2000/svg">
<g opacity="0.1" clip-path="url(#clip0_190_1700)">
<rect width="25" height="25" fill="#F7FAFF"/>
<path d="M23.4375 10.3516H22.2559L19.4912 4.13184C19.3838 3.89029 19.2086 3.68508 18.9869 3.54105C18.7652 3.39702 18.5065 3.32034 18.2422 3.32031H6.75781C6.49345 3.32034 6.23477 3.39702 6.01308 3.54105C5.7914 3.68508 5.61623 3.89029 5.50879 4.13184L2.74414 10.3516H1.5625C1.4071 10.3516 1.25806 10.4133 1.14818 10.5232C1.0383 10.6331 0.976562 10.7821 0.976562 10.9375C0.976562 11.0929 1.0383 11.2419 1.14818 11.3518C1.25806 11.4617 1.4071 11.5234 1.5625 11.5234H2.53906V19.5312C2.53906 19.8939 2.68311 20.2416 2.9395 20.498C3.1959 20.7544 3.54365 20.8984 3.90625 20.8984H6.25C6.6126 20.8984 6.96035 20.7544 7.21675 20.498C7.47315 20.2416 7.61719 19.8939 7.61719 19.5312V17.7734H17.3828V19.5312C17.3828 19.8939 17.5269 20.2416 17.7833 20.498C18.0396 20.7544 18.3874 20.8984 18.75 20.8984H21.0938C21.4564 20.8984 21.8041 20.7544 22.0605 20.498C22.3169 20.2416 22.4609 19.8939 22.4609 19.5312V11.5234H23.4375C23.5929 11.5234 23.7419 11.4617 23.8518 11.3518C23.9617 11.2419 24.0234 11.0929 24.0234 10.9375C24.0234 10.7821 23.9617 10.6331 23.8518 10.5232C23.7419 10.4133 23.5929 10.3516 23.4375 10.3516ZM6.5791 4.6084C6.59443 4.5738 6.61948 4.54439 6.65121 4.52376C6.68293 4.50313 6.71997 4.49216 6.75781 4.49219H18.2422C18.28 4.49216 18.3171 4.50313 18.3488 4.52376C18.3805 4.54439 18.4056 4.5738 18.4209 4.6084L20.9736 10.3516H4.02637L6.5791 4.6084ZM6.44531 19.5312C6.44531 19.583 6.42474 19.6327 6.38811 19.6694C6.35148 19.706 6.3018 19.7266 6.25 19.7266H3.90625C3.85445 19.7266 3.80477 19.706 3.76814 19.6694C3.73151 19.6327 3.71094 19.583 3.71094 19.5312V17.7734H6.44531V19.5312ZM21.0938 19.7266H18.75C18.6982 19.7266 18.6485 19.706 18.6119 19.6694C18.5753 19.6327 18.5547 19.583 18.5547 19.5312V17.7734H21.2891V19.5312C21.2891 19.583 21.2685 19.6327 21.2319 19.6694C21.1952 19.706 21.1455 19.7266 21.0938 19.7266ZM21.2891 16.6016H3.71094V11.5234H21.2891V16.6016ZM5.66406 14.0625C5.66406 13.9071 5.72579 13.7581 5.83568 13.6482C5.94556 13.5383 6.0946 13.4766 6.25 13.4766H7.8125C7.9679 13.4766 8.11694 13.5383 8.22682 13.6482C8.3367 13.7581 8.39844 13.9071 8.39844 14.0625C8.39844 14.2179 8.3367 14.3669 8.22682 14.4768C8.11694 14.5867 7.9679 14.6484 7.8125 14.6484H6.25C6.0946 14.6484 5.94556 14.5867 5.83568 14.4768C5.72579 14.3669 5.66406 14.2179 5.66406 14.0625ZM16.6016 14.0625C16.6016 13.9071 16.6633 13.7581 16.7732 13.6482C16.8831 13.5383 17.0321 13.4766 17.1875 13.4766H18.75C18.9054 13.4766 19.0544 13.5383 19.1643 13.6482C19.2742 13.7581 19.3359 13.9071 19.3359 14.0625C19.3359 14.2179 19.2742 14.3669 19.1643 14.4768C19.0544 14.5867 18.9054 14.6484 18.75 14.6484H17.1875C17.0321 14.6484 16.8831 14.5867 16.7732 14.4768C16.6633 14.3669 16.6016 14.2179 16.6016 14.0625Z" fill="black"/>
</g>
<defs>
<clipPath id="clip0_190_1700">
<rect width="25" height="25" fill="white"/>
</clipPath>
</defs>
</svg>
