<svg width="25" height="25" viewBox="0 0 25 25" fill="none" xmlns="http://www.w3.org/2000/svg">
<rect width="25" height="25" fill="#5E5E5E"/>
<path d="M15.4717 3.5175L21.2374 9.28268C23.0784 7.45143 23.1516 5.12866 21.3833 3.37107C19.6257 1.63446 17.303 1.67598 15.4717 3.5175ZM14.4257 4.5742C13.3164 5.66259 12.8561 6.90768 13.0128 8.1108L3.29271 18.584C2.89539 19.0135 2.83245 19.6099 3.32396 20.1019L1.98468 21.8282C1.84896 21.9952 1.84896 22.2362 2.03736 22.4242L2.34093 22.7385C2.51861 22.9162 2.75923 22.9269 2.94763 22.78L4.67396 21.4304C5.14495 21.9224 5.75164 21.859 6.16995 21.4617L11.59 16.4394V22.4139C11.59 22.9474 12.0186 23.3662 12.5525 23.3662C12.678 23.3675 12.8024 23.3438 12.9186 23.2965C13.0347 23.2491 13.1402 23.179 13.2289 23.0903C13.3176 23.0016 13.3877 22.8961 13.4351 22.78C13.4825 22.6638 13.5061 22.5394 13.5048 22.4139V16.23L13.4316 14.734L16.6226 11.7729C17.8262 11.93 19.0923 11.438 20.1807 10.3398L14.4257 4.5742ZM4.36013 19.4425L13.5887 9.67018C13.7664 9.96259 13.986 10.2452 14.2476 10.5175C14.4967 10.7704 14.77 10.9981 15.0637 11.1974L5.33289 20.405L4.36013 19.4425Z" fill="#454545"/>
</svg>
