<svg width="20" height="21" viewBox="0 0 20 21" fill="none" xmlns="http://www.w3.org/2000/svg">
<path d="M16.9231 0.357056H3.07692C2.26115 0.357946 1.47904 0.682408 0.902194 1.25925C0.325352 1.83609 0.000890796 2.6182 0 3.43398V17.2801C0.000890796 18.0959 0.325352 18.878 0.902194 19.4549C1.47904 20.0317 2.26115 20.3562 3.07692 20.3571H16.9231C17.7389 20.3562 18.521 20.0317 19.0978 19.4549C19.6746 18.878 19.9991 18.0959 20 17.2801V3.43398C19.9991 2.6182 19.6746 1.83609 19.0978 1.25925C18.521 0.682408 17.7389 0.357946 16.9231 0.357056ZM15.2043 7.00561L8.74279 14.6979C8.67191 14.7823 8.58371 14.8505 8.48418 14.8979C8.38464 14.9453 8.27608 14.9707 8.16587 14.9724H8.15288C8.04507 14.9724 7.93846 14.9497 7.83998 14.9058C7.7415 14.8619 7.65335 14.7978 7.58125 14.7176L4.81202 11.6407C4.74169 11.5661 4.68698 11.4782 4.65111 11.3822C4.61524 11.2861 4.59892 11.1839 4.60313 11.0815C4.60733 10.979 4.63197 10.8785 4.67559 10.7857C4.71922 10.6929 4.78094 10.6098 4.85715 10.5412C4.93336 10.4726 5.0225 10.42 5.11935 10.3864C5.21619 10.3527 5.31878 10.3388 5.42109 10.3454C5.5234 10.352 5.62336 10.3789 5.7151 10.4247C5.80683 10.4704 5.8885 10.5341 5.95529 10.6119L8.13269 13.0311L14.0264 6.01619C14.1586 5.86334 14.3457 5.76866 14.5471 5.75261C14.7486 5.73656 14.9483 5.80042 15.103 5.9304C15.2577 6.06039 15.3551 6.24604 15.3741 6.44724C15.393 6.64844 15.3321 6.84901 15.2043 7.00561Z" fill="#F7FAFF"/>
</svg>
