<svg width="25" height="25" viewBox="0 0 25 25" fill="none" xmlns="http://www.w3.org/2000/svg">
<g opacity="0.1">
<rect width="25" height="25" fill="#F7FAFF"/>
<path d="M13.7188 3V10.0312H7.22422C6.97569 9.44879 6.65608 8.89931 6.27266 8.39531C5.44844 7.3 4.03516 6.125 2 6.125V7.6875C3.44922 7.6875 4.38047 8.46562 5.02734 9.32344C5.64453 10.1414 5.88203 10.9102 5.90625 10.9836C5.97031 13.632 7.53281 15.9211 9.76406 17.0625C9.15192 17.0783 8.56999 17.3318 8.14155 17.7693C7.7131 18.2068 7.47179 18.7939 7.46875 19.4062C7.46875 20.6914 8.52734 21.75 9.8125 21.75C11.0977 21.75 12.1562 20.6914 12.1562 19.4062C12.1562 18.7133 11.857 18.0781 11.375 17.6484C11.8868 17.7725 12.411 17.838 12.9375 17.8438H15.2812C15.8078 17.838 16.332 17.7725 16.8438 17.6484C16.3617 18.0781 16.0625 18.7133 16.0625 19.4062C16.0625 20.6914 17.1211 21.75 18.4062 21.75C19.6914 21.75 20.75 20.6914 20.75 19.4062C20.747 18.7939 20.5057 18.2068 20.0772 17.7693C19.6488 17.3318 19.0668 17.0783 18.4547 17.0625C20.5117 16.0094 21.9922 13.9805 22.2633 11.5938C22.2883 11.3672 22.3102 11.1422 22.3125 10.9102V10.8609C22.3125 10.8609 22.3188 10.7328 22.3125 10.5195V10.0312H22.2633C22.2055 9.28359 22.05 8.15156 21.482 6.95469C20.5523 4.99688 18.443 3 14.5 3H13.7188ZM15.2812 4.66016C18.1039 4.89219 19.4164 6.21953 20.0906 7.63906C20.5516 8.6125 20.6555 9.42969 20.7016 10.0312H15.2812V4.66016ZM7.63984 11.5938H20.5781C20.1812 14.2211 18.0148 16.2812 15.2805 16.2812H12.9367C10.2023 16.2812 8.03672 14.2211 7.63984 11.5938ZM9.8125 18.625C10.2523 18.625 10.5938 18.9672 10.5938 19.4062C10.5938 19.8461 10.2516 20.1875 9.8125 20.1875C9.37266 20.1875 9.03125 19.8453 9.03125 19.4062C9.03125 18.9664 9.37344 18.625 9.8125 18.625ZM18.4062 18.625C18.8461 18.625 19.1875 18.9672 19.1875 19.4062C19.1875 19.8461 18.8453 20.1875 18.4062 20.1875C17.9664 20.1875 17.625 19.8453 17.625 19.4062C17.625 18.9664 17.9672 18.625 18.4062 18.625Z" fill="#1E1D1D"/>
</g>
</svg>
