<svg width="25" height="25" viewBox="0 0 25 25" fill="none" xmlns="http://www.w3.org/2000/svg">
<rect width="24" height="24" transform="translate(0.5 0.5)" fill="#5E5E5E"/>
<path d="M3.5 7.5V18.5C3.5 20.386 3.5 21.328 4.086 21.914C4.672 22.5 5.614 22.5 7.5 22.5H17.5C19.386 22.5 20.328 22.5 20.914 21.914C21.5 21.328 21.5 20.386 21.5 18.5V7.5M17.5 7.5C17.5 6.17392 16.9732 4.90215 16.0355 3.96447C15.0979 3.02678 13.8261 2.5 12.5 2.5C11.1739 2.5 9.90215 3.02678 8.96447 3.96447C8.02678 4.90215 7.5 6.17392 7.5 7.5" stroke="#474747" stroke-width="1.5" stroke-linecap="round" stroke-linejoin="round"/>
<path d="M14.5 22.5V18.5C14.5 17.9696 14.2893 17.4609 13.9142 17.0858C13.5391 16.7107 13.0304 16.5 12.5 16.5C11.9696 16.5 11.4609 16.7107 11.0858 17.0858C10.7107 17.4609 10.5 17.9696 10.5 18.5V22.5M9.5 3.5H4.972C4.662 3.5 4.347 3.582 4.098 3.829C3.356 4.564 2.928 5.788 2.5 7.5H7.5M15.5 3.5H20.028C20.338 3.5 20.653 3.582 20.902 3.829C21.644 4.564 22.072 5.788 22.5 7.5H17.5M6.5 11.5H7M6.5 15H7M18 11.5H18.5M18 15H18.5M11 8.5V10M11 10V11.5M11 10H14M14 8.5V10M14 10V11.5" stroke="#474747" stroke-width="1.5" stroke-linecap="round" stroke-linejoin="round"/>
</svg>
