<svg width="25" height="25" viewBox="0 0 25 25" fill="none" xmlns="http://www.w3.org/2000/svg">
<g clip-path="url(#clip0_190_1815)">
<rect width="24" height="24" transform="translate(0.5 0.5)" fill="#5E5E5E"/>
<path d="M14.4414 18.7279H15.8354V20.8189H14.4414V18.7279ZM19.2601 18.7279H20.6541V20.8189H19.2601V18.7279ZM18.0907 11.3119V9.22192H16.1587V10.2399L16.8794 11.3129L18.0907 11.3119Z" fill="#474747"/>
<path d="M22.8676 22.6124V18.2034H23.3109L23.7229 17.5924L18.8416 10.2704H18.2356V11.5394H16.8156L15.9696 10.2704H13.6256L8.74959 17.5844L9.16159 18.2024H9.81426V22.6114H8.54026C6.63492 19.8774 6.12826 13.6764 6.30626 9.06342L6.33759 8.96942H6.35292C7.18626 8.96942 7.92492 9.57542 8.38492 10.5094L8.38959 10.5194C8.73626 11.2224 8.94492 12.1074 8.94492 13.0644C8.94492 13.7244 8.84626 14.3494 8.66892 14.9084L8.67626 14.8824C9.04831 14.7395 9.39418 14.4729 9.68826 14.1024L9.68426 14.1074C9.99045 13.7076 10.2359 13.2139 10.4039 12.6596C10.5719 12.1053 10.6587 11.5033 10.6583 10.8944C10.6583 9.93942 10.4489 9.05842 10.0956 8.34842L10.1009 8.35942C9.79776 7.72527 9.36901 7.25065 8.87565 7.00307C8.3823 6.7555 7.84946 6.74757 7.35292 6.98042L7.37026 6.97342C7.54692 6.80842 7.75026 6.66242 7.96426 6.55142L7.98559 6.54142C8.27644 6.38028 8.5842 6.29865 8.89426 6.30042C9.61626 6.30042 10.2703 6.73342 10.7483 7.43442L10.7476 7.43342C10.8184 6.87254 10.7971 6.29421 10.6856 5.74842L10.6903 5.77342C10.5797 5.28704 10.4043 4.8395 10.1748 4.45807C9.9452 4.07664 9.66627 3.7693 9.35497 3.55477C9.04368 3.34024 8.70652 3.22302 8.36405 3.21024C8.02157 3.19745 7.68095 3.28938 7.36292 3.48042L7.37959 3.47142C7.21873 3.5546 7.06228 3.65589 6.91159 3.77442L6.93092 3.76042C6.88553 3.44768 6.81827 3.143 6.73026 2.85142L6.73826 2.88042C6.15159 0.907423 4.80626 -0.0245771 3.73093 0.790423C3.44052 1.01311 3.191 1.33932 3.00426 1.74042L3.00026 1.75042C3.37873 1.80613 3.7433 1.99362 4.06494 2.29795C4.38657 2.60229 4.6564 3.01507 4.85292 3.50342L4.85892 3.51942C4.60946 3.33209 4.34544 3.19202 4.07293 3.10242L4.05026 3.09642C2.39693 2.56342 0.823592 3.91042 0.541592 6.11142C0.466243 6.71521 0.4912 7.33754 0.614259 7.92342L0.609592 7.89742C0.979296 7.26785 1.45778 6.80374 1.99224 6.55634C2.52669 6.30894 3.09632 6.28785 3.63826 6.49542L3.61693 6.48842C3.88959 6.57442 4.13092 6.69842 4.35692 6.86142L4.33759 6.84842C3.79671 6.74034 3.24663 6.87672 2.75771 7.24012C2.26878 7.60352 1.86323 8.17742 1.59293 8.88842L1.58559 8.90842C1.30337 9.62157 1.15523 10.4361 1.15693 11.2654C1.15693 12.8334 1.67493 14.2194 2.46893 15.0594L2.47893 15.0694C2.82058 15.4135 3.2104 15.6352 3.61826 15.7174L3.63226 15.7194C3.33813 14.9884 3.18339 14.1503 3.18492 13.2964C3.18492 12.4234 3.34292 11.6054 3.61892 10.9044L3.61092 10.9264C3.81597 10.3911 4.0971 9.93002 4.43436 9.57606C4.77161 9.2221 5.1567 8.98391 5.56226 8.87842L5.57892 8.87442C4.63426 15.3274 4.37293 19.8234 5.15226 22.6104H2.88159V24.4904H24.3136V22.6104H22.8676V22.6124ZM17.5676 18.3054H22.3449V22.6124H17.5676V18.3054ZM10.3269 17.4514L13.6269 12.5014L16.9269 17.4514V22.6124H13.3036V18.7284H11.4709V22.6124H10.3229V17.4514H10.3269Z" fill="#474747"/>
</g>
<defs>
<clipPath id="clip0_190_1815">
<rect width="24" height="24" fill="white" transform="translate(0.5 0.5)"/>
</clipPath>
</defs>
</svg>
