<svg width="21" height="18" viewBox="0 0 21 18" fill="none" xmlns="http://www.w3.org/2000/svg">
<path d="M9.5 18V16H17.5V8.9C17.5 6.95 16.821 5.296 15.463 3.938C14.105 2.58 12.4507 1.90067 10.5 1.9C8.54933 1.89933 6.89533 2.57867 5.538 3.938C4.18067 5.29733 3.50133 6.95133 3.5 8.9V15H2.5C1.95 15 1.47933 14.8043 1.088 14.413C0.696667 14.0217 0.500667 13.5507 0.5 13V11C0.5 10.65 0.587667 10.321 0.763 10.013C0.938333 9.705 1.184 9.459 1.5 9.275L1.575 7.95C1.70833 6.81667 2.03767 5.76667 2.563 4.8C3.08833 3.83333 3.74667 2.99167 4.538 2.275C5.32933 1.55833 6.23733 1 7.262 0.6C8.28667 0.2 9.366 0 10.5 0C11.634 0 12.709 0.2 13.725 0.6C14.741 1 15.6493 1.55433 16.45 2.263C17.2507 2.97167 17.909 3.809 18.425 4.775C18.941 5.741 19.2743 6.791 19.425 7.925L19.5 9.225C19.8167 9.375 20.0627 9.6 20.238 9.9C20.4133 10.2 20.5007 10.5167 20.5 10.85V13.15C20.5 13.4833 20.4127 13.8 20.238 14.1C20.0633 14.4 19.8173 14.625 19.5 14.775V16C19.5 16.55 19.3043 17.021 18.913 17.413C18.5217 17.805 18.0507 18.0007 17.5 18H9.5ZM7.5 11C7.21667 11 6.97933 10.904 6.788 10.712C6.59667 10.52 6.50067 10.2827 6.5 10C6.49933 9.71733 6.59533 9.48 6.788 9.288C6.98067 9.096 7.218 9 7.5 9C7.782 9 8.01967 9.096 8.213 9.288C8.40633 9.48 8.502 9.71733 8.5 10C8.498 10.2827 8.402 10.5203 8.212 10.713C8.022 10.9057 7.78467 11.0013 7.5 11ZM13.5 11C13.2167 11 12.9793 10.904 12.788 10.712C12.5967 10.52 12.5007 10.2827 12.5 10C12.4993 9.71733 12.5953 9.48 12.788 9.288C12.9807 9.096 13.218 9 13.5 9C13.782 9 14.0197 9.096 14.213 9.288C14.4063 9.48 14.502 9.71733 14.5 10C14.498 10.2827 14.402 10.5203 14.212 10.713C14.022 10.9057 13.7847 11.0013 13.5 11ZM4.525 9.45C4.40833 7.68333 4.94167 6.16667 6.125 4.9C7.30833 3.63333 8.78333 3 10.55 3C12.0333 3 13.3377 3.47067 14.463 4.412C15.5883 5.35333 16.2673 6.558 16.5 8.026C14.9833 8.00867 13.5877 7.6 12.313 6.8C11.0383 6 10.059 4.91667 9.375 3.55C9.10833 4.88333 8.546 6.071 7.688 7.113C6.83 8.155 5.77567 8.934 4.525 9.45Z" fill="#F7FAFF"/>
</svg>
