<svg width="33" height="32" viewBox="0 0 33 32" fill="none" xmlns="http://www.w3.org/2000/svg">
<path d="M16.485 5.97197C8.92204 5.97197 2.79004 10.049 2.79004 15.078C2.79004 17.955 4.80304 20.518 7.93704 22.186C7.49104 23.666 6.60104 25.303 4.88104 26.752C4.88104 26.752 8.89704 26.486 11.733 23.609C11.896 23.649 12.065 23.679 12.23 23.715C12.0693 23.2507 11.9859 22.7632 11.983 22.272C11.983 18.879 15.759 16.222 20.583 16.222C24.046 16.222 26.961 17.598 28.333 19.628C29.501 18.288 30.18 16.735 30.18 15.075C30.18 10.047 24.048 5.96997 16.485 5.96997V5.97197ZM28.18 22.274C28.18 19.484 24.78 17.221 20.58 17.221C16.385 17.221 12.982 19.485 12.982 22.275C12.982 25.065 16.385 27.328 20.582 27.328C21.51 27.328 22.395 27.212 23.218 27.008C24.791 28.606 27.018 28.753 27.018 28.753C26.065 27.949 25.572 27.04 25.324 26.219C27.062 25.294 28.18 23.871 28.18 22.274Z" fill="#DE48B1"/>
</svg>
