<svg width="25" height="25" viewBox="0 0 25 25" fill="none" xmlns="http://www.w3.org/2000/svg">
<rect width="25" height="25" fill="#5E5E5E"/>
<path d="M1.04199 22.9167C1.04199 23.4792 1.51074 23.9584 2.08366 23.9584H15.6253C16.2087 23.9584 16.667 23.4792 16.667 22.9167V21.8751H1.04199V22.9167ZM8.85449 9.37508C4.94824 9.37508 1.04199 11.4584 1.04199 15.6251H16.667C16.667 11.4584 12.7607 9.37508 8.85449 9.37508ZM3.77116 13.5417C4.92741 11.9272 7.38574 11.4584 8.85449 11.4584C10.3232 11.4584 12.7816 11.9272 13.9378 13.5417H3.77116ZM1.04199 17.7084H16.667V19.7917H1.04199V17.7084ZM18.7503 5.20841V1.04175H16.667V5.20841H11.4587L11.6982 7.29175H21.6566L20.1982 21.8751H18.7503V23.9584H20.542C21.417 23.9584 22.1357 23.2813 22.2399 22.4272L23.9587 5.20841H18.7503Z" fill="#454545"/>
</svg>
