<svg width="51" height="50" viewBox="0 0 51 50" fill="none" xmlns="http://www.w3.org/2000/svg">
<path d="M19.8853 4.16675H31.6144C35.4436 4.16675 37.3582 4.16675 38.8644 5.09175C39.1237 5.25195 39.3709 5.4309 39.604 5.62716C40.9582 6.76258 41.5644 8.57717 42.7769 12.2105L42.8519 12.4334C43.5165 14.423 43.8478 15.4188 43.4978 16.1709C43.386 16.4083 43.2305 16.6225 43.0394 16.8022C42.4394 17.373 41.3894 17.373 39.2915 17.373L38.404 23.4376H13.0957L12.2082 17.3751C10.1103 17.3751 9.06234 17.3751 8.45818 16.8022C8.26851 16.6221 8.11444 16.408 8.00401 16.1709C7.65193 15.4188 7.98318 14.423 8.64984 12.4334L8.72276 12.2105C9.93734 8.57717 10.5415 6.76258 11.8957 5.62508C12.129 5.42925 12.3769 5.25008 12.6373 5.08966C14.1436 4.16675 16.054 4.16675 19.8853 4.16675ZM36.879 33.8542H14.6207L13.554 26.5626H37.9457L36.879 33.8542ZM27.9228 45.8334H23.5769C20.1415 45.8334 18.4248 45.8334 17.2519 44.8188C16.0769 43.8043 15.829 42.1063 15.3311 38.7063L15.079 36.9793H36.4207L36.1686 38.7084C35.6707 42.1043 35.4207 43.8043 34.2478 44.8188C33.0748 45.8334 31.3582 45.8334 27.9228 45.8334Z" fill="#30D0FD"/>
</svg>
