<svg width="25" height="25" viewBox="0 0 25 25" fill="none" xmlns="http://www.w3.org/2000/svg">
<g opacity="0.1">
<rect width="25" height="25" fill="white"/>
<path d="M5 9H19M13 9L16 2M10.009 16.5H10M14 18H13.991M13.011 14H13.002M18 9L16.522 18.414C16.272 19.999 16.148 20.792 15.586 21.264C14.386 22.273 9.547 22.217 8.414 21.264C7.852 20.792 7.727 19.999 7.478 18.414L6 9L6.514 7.714C6.95234 6.61734 7.7093 5.67722 8.68718 5.01498C9.66506 4.35274 10.819 3.99878 12 3.99878C13.181 3.99878 14.3349 4.35274 15.3128 5.01498C16.2907 5.67722 17.0477 6.61734 17.486 7.714L18 9Z" stroke="#1E1D1D" stroke-width="1.5" stroke-linecap="round" stroke-linejoin="round"/>
</g>
</svg>
