<svg width="25" height="25" viewBox="0 0 25 25" fill="none" xmlns="http://www.w3.org/2000/svg">
<g opacity="0.1" clip-path="url(#clip0_190_1761)">
<rect width="25" height="25" fill="white"/>
<path d="M7.03125 1.5625H8.59375V9.375H7.03125V1.5625Z" fill="black"/>
<path d="M10.9375 8.59374C10.9375 9.42254 10.6083 10.2174 10.0222 10.8034C9.43616 11.3895 8.6413 11.7187 7.8125 11.7187C6.9837 11.7187 6.18884 11.3895 5.60279 10.8034C5.01674 10.2174 4.6875 9.42254 4.6875 8.59374V1.56249H3.125V8.59374C3.12612 9.70067 3.51894 10.7715 4.23389 11.6166C4.94885 12.4616 5.9398 13.0264 7.03125 13.2109V23.4375H8.59375V13.2109C9.6852 13.0264 10.6762 12.4616 11.3911 11.6166C12.1061 10.7715 12.4989 9.70067 12.5 8.59374V1.56249H10.9375V8.59374ZM17.1875 1.56249H16.4062V23.4375H17.9688V15.625H20.3125C20.7269 15.625 21.1243 15.4604 21.4174 15.1673C21.7104 14.8743 21.875 14.4769 21.875 14.0625V6.24999C21.8992 5.62794 21.7944 5.00761 21.5674 4.42796C21.3404 3.84831 20.996 3.32187 20.5558 2.88168C20.1156 2.44149 19.5892 2.09707 19.0095 1.87006C18.4299 1.64304 17.8095 1.53832 17.1875 1.56249ZM20.3125 14.0625H17.9688V3.1953C20.2188 3.6328 20.3125 5.96092 20.3125 6.24999V14.0625Z" fill="black"/>
</g>
<defs>
<clipPath id="clip0_190_1761">
<rect width="25" height="25" fill="white"/>
</clipPath>
</defs>
</svg>
