<svg width="25" height="25" viewBox="0 0 25 25" fill="none" xmlns="http://www.w3.org/2000/svg">
<rect width="24" height="24" transform="translate(0.5 0.5)" fill="#5E5E5E"/>
<path fill-rule="evenodd" clip-rule="evenodd" d="M15.5141 3.68494L15.7921 4.03694C15.9321 4.21394 16.0111 4.31294 16.0751 4.38194C16.0934 4.40294 16.1135 4.42234 16.1351 4.43994C16.1587 4.44652 16.1828 4.4512 16.2071 4.45394C16.2961 4.46694 16.4171 4.47494 16.6371 4.48894L17.0751 4.51594C17.7571 4.55894 18.3551 4.59594 18.8101 4.69594C19.2921 4.79994 19.8161 5.01594 20.0941 5.57594C20.3691 6.12794 20.2351 6.67794 20.0401 7.13194C19.8541 7.56594 19.5351 8.08394 19.1681 8.67994L19.1381 8.72894L18.9341 9.05894C18.8547 9.18364 18.7797 9.31105 18.7091 9.44094C18.695 9.46798 18.6829 9.49606 18.6731 9.52494V9.54094C18.6731 9.55394 18.6761 9.57894 18.6831 9.62094C18.7011 9.71694 18.7331 9.84194 18.7901 10.0619L18.8901 10.4429L18.9041 10.4979C19.0841 11.1879 19.2401 11.7839 19.2941 12.2559C19.3501 12.7429 19.3261 13.3179 18.8951 13.7659C18.4551 14.2239 17.8781 14.2539 17.3931 14.1959C16.9321 14.1409 16.3531 13.9799 15.6901 13.7969L15.2651 13.6789C15.1264 13.6379 14.9863 13.6019 14.8451 13.5709C14.8233 13.5662 14.8013 13.5629 14.7791 13.5609C14.7581 13.5696 14.7378 13.5796 14.7181 13.5909C14.6381 13.6349 14.5381 13.7019 14.3531 13.8249L13.9861 14.0699C13.4141 14.4509 12.9141 14.7849 12.4931 14.9819C12.0511 15.1879 11.4931 15.3399 10.9311 15.0419C10.5731 14.8519 10.3631 14.5569 10.2321 14.2419C7.9591 15.2009 6.1021 16.8479 5.4591 18.7419C5.40529 18.9007 5.29986 19.0368 5.15963 19.1286C5.0194 19.2205 4.85246 19.2626 4.68544 19.2485C4.51843 19.2343 4.36097 19.1646 4.2382 19.0505C4.11542 18.9364 4.03441 18.7845 4.0081 18.6189C3.0681 12.7349 4.8241 9.18594 7.3481 7.25194C7.5231 6.85594 7.8551 6.59194 8.1841 6.39794C8.5851 6.16194 9.1411 5.93994 9.7771 5.68594L9.8311 5.66394L10.1841 5.52294C10.3186 5.47178 10.4514 5.41608 10.5821 5.35594C10.6044 5.34534 10.6258 5.33297 10.6461 5.31894C10.6611 5.29574 10.6742 5.27132 10.6851 5.24594C10.7251 5.15994 10.7681 5.04094 10.8461 4.82894L10.9811 4.46194L11.0011 4.40794C11.2451 3.74594 11.4561 3.17194 11.6811 2.75794C11.9121 2.33194 12.2671 1.86794 12.8931 1.76794C13.5181 1.66794 14.0011 1.99794 14.3531 2.32994C14.6961 2.65294 15.0761 3.13294 15.5131 3.68494M7.66009 8.95994C6.23709 10.3309 5.1401 12.5499 5.2581 16.0679C6.4261 14.5999 8.1321 13.4519 9.9571 12.7359C9.9371 12.4879 9.9211 12.2219 9.9041 11.9409L9.8761 11.4909C9.86919 11.3402 9.85718 11.1898 9.8401 11.0399C9.83587 11.0075 9.82919 10.9754 9.8201 10.9439C9.8201 10.9439 9.8191 10.9409 9.8121 10.9339C9.79605 10.9135 9.77868 10.8941 9.7601 10.8759C9.65252 10.7744 9.54145 10.6767 9.4271 10.5829L9.0871 10.2969C8.5521 9.84494 8.0871 9.45194 7.7751 9.09794C7.73557 9.05294 7.69722 9.00693 7.66009 8.95994ZM11.5331 13.3399C11.5541 13.2017 11.5357 13.0603 11.4801 12.9319C11.4501 12.6359 11.4261 12.2649 11.3971 11.7919L11.3731 11.3989C11.3714 11.3709 11.3697 11.3429 11.3681 11.3149C11.3481 10.9709 11.3261 10.6049 11.1631 10.2759C10.9981 9.94594 10.7191 9.70994 10.4581 9.49094C10.4371 9.4733 10.4161 9.45563 10.3951 9.43794L10.0991 9.18794C9.5081 8.68794 9.13109 8.36694 8.90009 8.10594C8.8292 8.03214 8.77017 7.94781 8.7251 7.85594L8.7271 7.85294C8.7911 7.78843 8.86462 7.73413 8.9451 7.69194C9.2351 7.52094 9.6821 7.33994 10.3881 7.05794L10.7411 6.91694L10.8181 6.88694C11.1261 6.76494 11.4681 6.62894 11.7271 6.35994C11.9821 6.09494 12.1091 5.74694 12.2251 5.42794L12.2551 5.34794L12.3891 4.98094C12.6591 4.24894 12.8331 3.78094 12.9991 3.47594C13.0364 3.40214 13.0813 3.33243 13.1331 3.26794C13.1701 3.28994 13.2321 3.33494 13.3251 3.42294C13.5781 3.66094 13.8891 4.05094 14.3731 4.66294L14.6161 4.96894L14.6681 5.03594C14.8781 5.30194 15.1081 5.59394 15.4321 5.76594C15.7621 5.94094 16.1301 5.96294 16.4611 5.98194L16.5431 5.98694L16.9231 6.01094C17.6821 6.05794 18.1621 6.09094 18.4911 6.16094C18.5807 6.1763 18.6673 6.2053 18.7481 6.24694L18.7501 6.24794V6.25994C18.7348 6.35711 18.7051 6.45147 18.6621 6.53994C18.5241 6.86094 18.2661 7.28394 17.8601 7.94394L17.6571 8.27394L17.6131 8.34394C17.4341 8.63394 17.2421 8.94394 17.1891 9.30994C17.1361 9.67294 17.2291 10.0269 17.3181 10.3609L17.3391 10.4429L17.4391 10.8229C17.6371 11.5839 17.7641 12.0739 17.8041 12.4269C17.8231 12.5879 17.8171 12.6739 17.8101 12.7159C17.7301 12.7226 17.6495 12.7199 17.5701 12.7079C17.2371 12.6679 16.7701 12.5409 16.0341 12.3369L15.6661 12.2349C15.6394 12.2274 15.6127 12.2197 15.5861 12.2119C15.2661 12.1219 14.9091 12.0219 14.5411 12.0809C14.1741 12.1399 13.8651 12.3469 13.5911 12.5309L13.5211 12.5779L13.2031 12.7899C12.5671 13.2139 12.1631 13.4809 11.8591 13.6229C11.7879 13.6591 11.7127 13.687 11.6351 13.7059C11.5946 13.6181 11.566 13.5253 11.5501 13.4299C11.544 13.4 11.5383 13.37 11.5331 13.3399ZM11.6471 13.7269L11.6551 13.7339C11.6551 13.7349 11.6521 13.7329 11.6471 13.7269ZM17.8001 12.7489C17.8001 12.7489 17.8001 12.7449 17.8041 12.7389C17.8021 12.7469 17.8001 12.7489 17.8001 12.7489ZM17.8331 12.7119C17.8401 12.7069 17.8451 12.7059 17.8461 12.7069L17.8331 12.7119ZM13.1701 3.23494L13.1601 3.24094C13.1661 3.23594 13.1701 3.23394 13.1701 3.23494ZM13.1001 3.24994C13.0941 3.24994 13.0901 3.24794 13.0901 3.24694L13.1001 3.24994Z" fill="#474747"/>
<path d="M10.78 16.5C10.78 16.5 11.414 17.89 12.194 18.37C12.974 18.847 14.5 18.78 14.5 18.78C14.5 18.78 13.11 19.413 12.63 20.193C12.152 20.973 12.22 22.5 12.22 22.5C12.22 22.5 11.586 21.11 10.806 20.63C10.027 20.154 8.5 20.22 8.5 20.22C8.5 20.22 9.89 19.587 10.37 18.807C10.848 18.027 10.78 16.5 10.78 16.5ZM18.98 15.5C18.98 15.5 18.558 16.427 18.038 16.746C17.518 17.065 16.5 17.02 16.5 17.02C16.5 17.02 17.427 17.442 17.746 17.962C18.065 18.482 18.02 19.5 18.02 19.5C18.02 19.5 18.442 18.573 18.962 18.254C19.482 17.935 20.5 17.98 20.5 17.98C20.5 17.98 19.573 17.558 19.254 17.038C18.935 16.518 18.98 15.5 18.98 15.5Z" stroke="#474747" stroke-linejoin="round"/>
</svg>
