<svg width="25" height="25" viewBox="0 0 25 25" fill="none" xmlns="http://www.w3.org/2000/svg">
<g clip-path="url(#clip0_190_1778)">
<rect width="25" height="25" fill="#5E5E5E"/>
<path fill-rule="evenodd" clip-rule="evenodd" d="M7.29167 2.08325C7.03029 2.08313 6.77841 2.18129 6.58603 2.35823C6.39365 2.53518 6.27482 2.77798 6.25312 3.03846L5.80729 8.39471C5.79554 8.53588 5.75511 8.67318 5.68848 8.79819C5.62185 8.92321 5.53043 9.03332 5.41979 9.12179L3.90729 10.3322C3.66335 10.5273 3.46638 10.7747 3.33097 11.0561C3.19556 11.3376 3.12516 11.6459 3.125 11.9583V20.8333C3.125 21.3858 3.34449 21.9157 3.73519 22.3064C4.12589 22.6971 4.6558 22.9166 5.20833 22.9166H11.4583C12.0109 22.9166 12.5408 22.6971 12.9315 22.3064C13.3222 21.9157 13.5417 21.3858 13.5417 20.8333V11.9583C13.5416 11.646 13.4714 11.3377 13.3362 11.0563C13.2009 10.7748 13.0042 10.5274 12.7604 10.3322L11.2469 9.12179C11.1362 9.03332 11.0448 8.92321 10.9782 8.79819C10.9116 8.67318 10.8711 8.53588 10.8594 8.39471L10.4135 3.03846C10.3918 2.77798 10.273 2.53518 10.0806 2.35823C9.88826 2.18129 9.63638 2.08313 9.375 2.08325H7.29167ZM7.88333 8.56763L8.25 4.16659H8.41667L8.78333 8.56763C8.8186 8.99115 8.93988 9.40302 9.13976 9.77807C9.33965 10.1531 9.61393 10.4835 9.94583 10.7489L11.4583 11.9583V20.8333H5.20833V11.9583L6.72083 10.7489C7.05274 10.4835 7.32702 10.1531 7.5269 9.77807C7.72678 9.40302 7.84807 8.99115 7.88333 8.56763ZM16.1406 8.33325C15.7468 8.33306 15.3662 8.47498 15.0686 8.73293C14.771 8.99089 14.5765 9.34756 14.5208 9.73742L13.9938 13.4249C13.8657 14.3209 14.0656 15.2331 14.5568 15.9933C15.0479 16.7536 15.7972 17.3108 16.6667 17.5624V20.8333H16.1458C15.8696 20.8333 15.6046 20.943 15.4093 21.1383C15.2139 21.3337 15.1042 21.5987 15.1042 21.8749C15.1042 22.1512 15.2139 22.4161 15.4093 22.6115C15.6046 22.8068 15.8696 22.9166 16.1458 22.9166H19.2708C19.5471 22.9166 19.8121 22.8068 20.0074 22.6115C20.2028 22.4161 20.3125 22.1512 20.3125 21.8749C20.3125 21.5987 20.2028 21.3337 20.0074 21.1383C19.8121 20.943 19.5471 20.8333 19.2708 20.8333H18.75V17.5624C19.6193 17.3109 20.3684 16.7538 20.8595 15.9937C21.3507 15.2337 21.5507 14.3218 21.4229 13.426L20.8958 9.73846C20.8404 9.34841 20.646 8.9915 20.3484 8.73333C20.0508 8.47516 19.67 8.33309 19.276 8.33325H16.1406ZM16.0573 13.7208L16.5271 10.4166H18.8875L19.3594 13.7208C19.3931 13.9574 19.3755 14.1985 19.308 14.4278C19.2404 14.657 19.1244 14.8691 18.9677 15.0497C18.8111 15.2302 18.6175 15.375 18.4 15.4742C18.1825 15.5734 17.9463 15.6248 17.7073 15.6248C17.4683 15.6248 17.232 15.5734 17.0146 15.4742C16.7971 15.375 16.6035 15.2302 16.4469 15.0497C16.2902 14.8691 16.1742 14.657 16.1066 14.4278C16.039 14.1985 16.0215 13.9574 16.0552 13.7208" fill="#454545"/>
</g>
<defs>
<clipPath id="clip0_190_1778">
<rect width="25" height="25" fill="white"/>
</clipPath>
</defs>
</svg>
