<svg width="25" height="25" viewBox="0 0 25 25" fill="none" xmlns="http://www.w3.org/2000/svg">
<g opacity="0.1">
<rect width="25" height="25" fill="white"/>
<path d="M16.6663 21.875H8.33295C8.05668 21.875 7.79173 21.7653 7.59638 21.5699C7.40103 21.3746 7.29128 21.1096 7.29128 20.8333V12.5729L5.93712 13.6667C5.53087 14.0625 4.87462 14.0625 4.46837 13.6667L1.52045 10.7187C1.42388 10.6224 1.34727 10.5079 1.295 10.3819C1.24273 10.2559 1.21582 10.1208 1.21582 9.98438C1.21582 9.84795 1.24273 9.71286 1.295 9.58685C1.34727 9.46084 1.42388 9.34637 1.52045 9.25L7.64545 3.125H9.37462C9.37462 4.27083 10.7704 5.20833 12.4996 5.20833C14.2288 5.20833 15.6246 4.27083 15.6246 3.125H17.3538L23.4788 9.25C23.885 9.65625 23.885 10.3125 23.4788 10.7187L20.5309 13.6667C20.1246 14.0625 19.4684 14.0625 19.0621 13.6667L17.7079 12.5729V20.8333C17.7079 21.1096 17.5982 21.3746 17.4029 21.5699C17.2075 21.7653 16.9425 21.875 16.6663 21.875ZM21.2704 9.97917L16.7809 5.5C16.4579 5.86458 16.0725 6.1875 15.6246 6.45833C14.7496 6.97917 13.6767 7.29167 12.4996 7.29167C10.7288 7.29167 9.15587 6.58333 8.21837 5.5L3.72878 9.97917L5.20795 11.4583L8.33295 9.375H9.37462V19.7917H15.6246V9.375H16.6663L19.7913 11.4583L21.2704 9.97917Z" fill="#2F2F2F"/>
</g>
</svg>
