<svg width="25" height="25" viewBox="0 0 25 25" fill="none" xmlns="http://www.w3.org/2000/svg">
<g opacity="0.1">
<rect width="25" height="25" fill="#F7FAFF"/>
<path d="M18.9844 4L21.9844 7M20.4844 5.5L12.4844 13.5M10.2604 11.284L14.7004 15.724C14.8815 15.9058 14.9831 16.1519 14.9831 16.4085C14.9831 16.6651 14.8815 16.9112 14.7004 17.093L11.9964 19.797C11.2245 20.5603 10.1818 20.987 9.09626 20.9839C8.0107 20.9808 6.9705 20.5481 6.20296 19.7804C5.43541 19.0128 5.00293 17.9725 5.00001 16.8869C4.9971 15.8014 5.42399 14.7588 6.18739 13.987L8.89139 11.284C9.07323 11.1026 9.31957 11.0008 9.57639 11.0008C9.83322 11.0008 10.0796 11.1026 10.2614 11.284H10.2604Z" stroke="#1E1D1D" stroke-width="2" stroke-linecap="round" stroke-linejoin="round"/>
</g>
</svg>
