<svg width="50" height="50" viewBox="0 0 50 50" fill="none" xmlns="http://www.w3.org/2000/svg">
<path fill-rule="evenodd" clip-rule="evenodd" d="M7.14286 1.01914e-07C6.8033 -0.000114596 6.47074 0.0965869 6.18419 0.278765C5.89764 0.460943 5.66897 0.721046 5.525 1.02857L0.167857 12.4893C0.0364817 12.7713 -0.0189194 13.0828 0.00714286 13.3929H0V16.7679C0 18.6393 0.807143 20.4321 2.25 21.7536C3.68571 23.075 5.63929 23.8179 7.675 23.8179H8.74643C10.75 23.8306 12.6861 23.0944 14.175 21.7536C14.7607 21.2179 15.2393 20.6036 15.6036 19.9393C16.0571 19.3321 16.7929 19.3321 17.2179 19.8893C17.5857 20.575 18.075 21.2036 18.6714 21.7536C20.1107 23.075 22.0643 23.8179 24.1 23.8179H26.0179C28.0215 23.8306 29.9575 23.0944 31.4464 21.7536C32.0036 21.2393 32.4679 20.6571 32.825 20.025C33.2929 19.2929 34.1107 19.3107 34.5393 19.9893C34.9 20.6357 35.3714 21.2321 35.9393 21.7536C37.3786 23.075 39.3321 23.8179 41.3679 23.8179H42.325C44.3286 23.8306 46.2647 23.0944 47.7536 21.7536C49.1929 20.4321 50 18.6393 50 16.7679V13.3929H49.9929C50.0189 13.0828 49.9635 12.7713 49.8321 12.4893L44.475 1.02857C44.331 0.721046 44.1024 0.460943 43.8158 0.278765C43.5293 0.0965869 43.1967 -0.000114596 42.8571 1.01914e-07H7.14286ZM3.57143 46.4286V27.6036C7.81429 29.0036 12.875 28.3786 16.35 25.6893C20.9857 29.275 29.025 29.275 33.6571 25.6893C37.15 28.3893 42.2 29.0036 46.4286 27.5679V46.4286C46.4286 47.3758 46.0523 48.2842 45.3825 48.954C44.7127 49.6237 43.8043 50 42.8571 50H38.375V36.4643C38.3742 36.3597 38.3516 36.2564 38.3085 36.1611C38.2655 36.0657 38.203 35.9804 38.125 35.9107C37.9584 35.7611 37.7417 35.6795 37.5179 35.6821H30.4036C30.1797 35.6795 29.963 35.7611 29.7964 35.9107C29.7185 35.9804 29.6559 36.0657 29.6129 36.1611C29.5698 36.2564 29.5472 36.3597 29.5464 36.4643V50H7.14286C6.19566 50 5.28725 49.6237 4.61748 48.954C3.9477 48.2842 3.57143 47.3758 3.57143 46.4286ZM8.93571 38.4286V33.9286C8.93571 33.455 9.12385 33.0008 9.45874 32.6659C9.79362 32.331 10.2478 32.1429 10.7214 32.1429H21.4857C21.9593 32.1429 22.4135 32.331 22.7484 32.6659C23.0833 33.0008 23.2714 33.455 23.2714 33.9286V38.4286C23.2714 38.9022 23.0833 39.3564 22.7484 39.6913C22.4135 40.0261 21.9593 40.2143 21.4857 40.2143H10.7214C10.2478 40.2143 9.79362 40.0261 9.45874 39.6913C9.12385 39.3564 8.93571 38.9022 8.93571 38.4286Z" fill="#30D0FD"/>
</svg>
