<svg width="24" height="48" viewBox="0 0 24 48" fill="none" xmlns="http://www.w3.org/2000/svg">
<path d="M12.25 0.828613C13.6562 0.828613 14.9258 1.40381 15.9805 2.31982C17.0352 3.23584 17.9043 4.48486 18.666 5.94092C20.1797 8.86084 21.2344 12.6304 21.9961 16.3804C23.1289 21.9175 23.6074 27.4155 23.7832 29.9351H22.0156C21.8398 27.4155 21.3613 22.0737 20.2773 16.7319C19.5254 13.0601 18.4805 9.39795 17.1035 6.75146C16.4102 5.42432 15.6387 4.354 14.8281 3.64697C14.0078 2.93896 13.1875 2.58643 12.25 2.58643C11.3125 2.58643 10.4922 2.93896 9.67188 3.64697C8.86133 4.354 8.08984 5.42432 7.39648 6.75146C6.01953 9.39795 4.97461 13.0601 4.22266 16.7319C3.13867 22.0737 2.66016 27.4155 2.48437 29.9351H0.716796C0.892577 27.4155 1.37109 21.9175 2.50391 16.3804C3.26562 12.6304 4.32031 8.86084 5.83398 5.94092C6.5957 4.48486 7.46484 3.23584 8.51953 2.31982C9.57422 1.40381 10.8437 0.828613 12.25 0.828613ZM23.8613 31.6929C23.8613 32.7964 23.8516 33.8413 23.832 34.8276C16 36.6733 8.29492 36.5952 0.667968 34.8179C0.648436 33.8218 0.638672 32.7964 0.638672 31.6929H23.8613ZM23.7637 36.6343C23.5586 40.3843 22.9141 43.2847 20.9219 45.9019V45.9116L20.9121 45.9214C20.9219 45.9116 20.6484 46.1265 20.1504 46.312C19.6426 46.4878 18.9395 46.6538 18.1191 46.7808C16.4785 47.0347 14.3594 47.1714 12.25 47.1714C10.1406 47.1714 8.02148 47.0347 6.38086 46.7808C5.56055 46.6538 4.85742 46.4878 4.34961 46.312C3.85156 46.1265 3.57812 45.9116 3.58789 45.9214L3.57812 45.9116V45.9019C1.58594 43.2847 0.941406 40.3647 0.736328 36.6343C8.31445 38.3335 16 38.4116 23.7637 36.6343Z" fill="#30D0FD"/>
</svg>
