<svg width="25" height="25" viewBox="0 0 25 25" fill="none" xmlns="http://www.w3.org/2000/svg">
<g opacity="0.1">
<rect width="25" height="25" fill="#F7FAFF"/>
<path d="M10.375 18.0664V10.73L2.5625 6.82373V17.5659L9.20312 20.8984L8.82471 22.4487L1 18.5425V5.06592L11.1562 0L21.3125 5.06592V8.36182C20.7428 8.45133 20.222 8.63444 19.75 8.91113V6.82373L11.9375 10.73V16.5039L10.375 18.0664ZM8.6416 2.99072L15.7705 7.06787L18.7856 5.5542L11.1562 1.7334L8.6416 2.99072ZM11.1562 9.375L14.0859 7.91016L6.95703 3.83301L3.52686 5.5542L11.1562 9.375ZM21.9961 10.2417C22.3379 10.2417 22.6553 10.3027 22.9482 10.4248C23.2412 10.5469 23.5016 10.7137 23.7295 10.9253C23.9574 11.1369 24.1283 11.3932 24.2422 11.6943C24.3561 11.9954 24.4212 12.3169 24.4375 12.6587C24.4375 12.9761 24.3765 13.2853 24.2544 13.5864C24.1323 13.8875 23.9574 14.152 23.7295 14.3799L14.9771 23.1323L10.375 24.2798L11.5225 19.6777L20.2749 10.9375C20.5109 10.7015 20.7754 10.5265 21.0684 10.4126C21.3613 10.2987 21.6706 10.2417 21.9961 10.2417ZM22.6187 13.2812C22.7896 13.1104 22.875 12.9028 22.875 12.6587C22.875 12.4064 22.7936 12.203 22.6309 12.0483C22.4681 11.8937 22.2565 11.8123 21.9961 11.8042C21.8822 11.8042 21.7723 11.8205 21.6665 11.853C21.5607 11.8856 21.4671 11.9466 21.3857 12.0361L12.9385 20.4834L12.5234 22.1313L14.1714 21.7163L22.6187 13.2812Z" fill="#1E1D1D"/>
</g>
</svg>
