<svg width="25" height="25" viewBox="0 0 25 25" fill="none" xmlns="http://www.w3.org/2000/svg">
<g opacity="0.1" clip-path="url(#clip0_190_1754)">
<rect width="25" height="25" fill="white"/>
<path d="M2.34375 14.4948H22.6562M21.5104 14.4948C21.5104 9.51875 17.4766 5.48438 12.5 5.48438C7.52344 5.48438 3.48958 9.51875 3.48958 14.4948" stroke="black" stroke-linecap="round" stroke-linejoin="round"/>
<path d="M8.74707 7.673C7.81613 8.28031 7.04671 9.10476 6.50506 10.0754C5.96341 11.046 5.66575 12.1337 5.6377 13.2449M12.4997 5.48446V4.30737M12.9893 17.9949C15.6966 17.9621 16.0434 17.849 21.0492 16.5782C21.3643 16.4985 21.5981 16.66 21.6669 16.8433C21.7372 17.0308 21.7085 17.3631 21.2809 17.474C20.4372 17.6928 15.1768 20.1199 13.9788 20.1199C12.7809 20.1199 9.29134 19.8595 7.97884 19.8595C6.66634 19.8595 5.13509 20.6928 5.13509 20.6928C4.08301 19.7136 3.41634 18.0886 3.23926 16.3282H16.2393C16.7757 16.3282 16.9476 17.0782 16.4893 17.2865C15.8096 17.5954 14.6559 17.9949 12.9893 17.9949Z" stroke="black" stroke-linecap="round" stroke-linejoin="round"/>
</g>
<defs>
<clipPath id="clip0_190_1754">
<rect width="25" height="25" fill="white"/>
</clipPath>
</defs>
</svg>
