<svg width="24" height="25" viewBox="0 0 24 25" fill="none" xmlns="http://www.w3.org/2000/svg">
<path d="M10 15.5L15.19 12.5L10 9.5V15.5ZM21.56 7.67C21.69 8.14 21.78 8.77 21.84 9.57C21.91 10.37 21.94 11.06 21.94 11.66L22 12.5C22 14.69 21.84 16.3 21.56 17.33C21.31 18.23 20.73 18.81 19.83 19.06C19.36 19.19 18.5 19.28 17.18 19.34C15.88 19.41 14.69 19.44 13.59 19.44L12 19.5C7.81 19.5 5.2 19.34 4.17 19.06C3.27 18.81 2.69 18.23 2.44 17.33C2.31 16.86 2.22 16.23 2.16 15.43C2.09 14.63 2.06 13.94 2.06 13.34L2 12.5C2 10.31 2.16 8.7 2.44 7.67C2.69 6.77 3.27 6.19 4.17 5.94C4.64 5.81 5.5 5.72 6.82 5.66C8.12 5.59 9.31 5.56 10.41 5.56L12 5.5C16.19 5.5 18.8 5.66 19.83 5.94C20.73 6.19 21.31 6.77 21.56 7.67Z" fill="#DE48B1"/>
</svg>
