<svg width="26" height="25" viewBox="0 0 26 25" fill="none" xmlns="http://www.w3.org/2000/svg">
<rect width="25" height="25" transform="translate(0.5)" fill="#5E5E5E"/>
<path d="M9.66634 11.6667C8.56127 11.6667 7.50146 11.2278 6.72006 10.4464C5.93866 9.66496 5.49967 8.60515 5.49967 7.50008V4.16675C5.49967 3.94573 5.58747 3.73377 5.74375 3.57749C5.90003 3.42121 6.11199 3.33341 6.33301 3.33341H7.16634C7.38736 3.33341 7.59932 3.24562 7.7556 3.08934C7.91188 2.93306 7.99967 2.7211 7.99967 2.50008C7.99967 2.27907 7.91188 2.06711 7.7556 1.91083C7.59932 1.75455 7.38736 1.66675 7.16634 1.66675H6.33301C5.66997 1.66675 5.03408 1.93014 4.56524 2.39898C4.0964 2.86782 3.83301 3.50371 3.83301 4.16675V7.50008C3.83408 8.44153 4.06365 9.36865 4.50201 10.2018C4.94036 11.035 5.5744 11.7493 6.34967 12.2834C7.09453 12.9401 7.6986 13.7409 8.12541 14.6375C8.55223 15.5341 8.79293 16.5079 8.83301 17.5001C8.83301 19.0472 9.44759 20.5309 10.5416 21.6249C11.6355 22.7188 13.1192 23.3334 14.6663 23.3334C16.2134 23.3334 17.6972 22.7188 18.7911 21.6249C19.8851 20.5309 20.4997 19.0472 20.4997 17.5001V16.5501C21.2852 16.3473 21.9698 15.8649 22.4252 15.1934C22.8805 14.5219 23.0753 13.7074 22.9731 12.9026C22.8709 12.0977 22.4786 11.3578 21.8699 10.8215C21.2611 10.2852 20.4777 9.98926 19.6663 9.98926C18.855 9.98926 18.0716 10.2852 17.4628 10.8215C16.8541 11.3578 16.4618 12.0977 16.3596 12.9026C16.2573 13.7074 16.4522 14.5219 16.9075 15.1934C17.3629 15.8649 18.0475 16.3473 18.833 16.5501V17.5001C18.833 18.6052 18.394 19.665 17.6126 20.4464C16.8312 21.2278 15.7714 21.6667 14.6663 21.6667C13.5613 21.6667 12.5015 21.2278 11.7201 20.4464C10.9387 19.665 10.4997 18.6052 10.4997 17.5001C10.5419 16.5067 10.7852 15.5321 11.2149 14.6355C11.6446 13.7388 12.2518 12.9386 12.9997 12.2834C13.7719 11.7474 14.4027 11.0323 14.8381 10.1993C15.2734 9.36621 15.5005 8.44005 15.4997 7.50008V4.16675C15.4997 3.50371 15.2363 2.86782 14.7674 2.39898C14.2986 1.93014 13.6627 1.66675 12.9997 1.66675H12.1663C11.9453 1.66675 11.7334 1.75455 11.5771 1.91083C11.4208 2.06711 11.333 2.27907 11.333 2.50008C11.333 2.7211 11.4208 2.93306 11.5771 3.08934C11.7334 3.24562 11.9453 3.33341 12.1663 3.33341H12.9997C13.2207 3.33341 13.4327 3.42121 13.5889 3.57749C13.7452 3.73377 13.833 3.94573 13.833 4.16675V7.50008C13.833 8.04726 13.7252 8.58907 13.5158 9.0946C13.3064 9.60012 12.9995 10.0594 12.6126 10.4464C12.2257 10.8333 11.7664 11.1402 11.2609 11.3496C10.7553 11.559 10.2135 11.6667 9.66634 11.6667ZM19.6663 15.0001C19.2243 15.0001 18.8004 14.8245 18.4878 14.5119C18.1753 14.1994 17.9997 13.7754 17.9997 13.3334C17.9997 12.8914 18.1753 12.4675 18.4878 12.1549C18.8004 11.8423 19.2243 11.6667 19.6663 11.6667C20.1084 11.6667 20.5323 11.8423 20.8449 12.1549C21.1574 12.4675 21.333 12.8914 21.333 13.3334C21.333 13.7754 21.1574 14.1994 20.8449 14.5119C20.5323 14.8245 20.1084 15.0001 19.6663 15.0001Z" fill="#474747"/>
</svg>
