<svg width="31" height="31" viewBox="0 0 31 31" fill="none" xmlns="http://www.w3.org/2000/svg">
<path d="M19.7121 5.1571L23.7271 12.1096H28.0059V14.6096H26.5471L25.6009 25.9634C25.5748 26.2757 25.4324 26.5669 25.2018 26.7792C24.9712 26.9915 24.6693 27.1094 24.3559 27.1096H6.65586C6.3422 27.1097 6.03995 26.992 5.8091 26.7796C5.57824 26.5673 5.43564 26.2759 5.40961 25.9634L4.46336 14.6096H3.00586V12.1096H7.28336L11.2984 5.1571L13.4634 6.4071L10.1709 12.1096H20.8396L17.5484 6.4071L19.7121 5.1571ZM16.7559 17.1096H14.2559V22.1096H16.7559V17.1096ZM11.7559 17.1096H9.25586V22.1096H11.7559V17.1096ZM21.7559 17.1096H19.2559V22.1096H21.7559V17.1096Z" fill="#F7FAFF"/>
</svg>
