<svg width="25" height="25" viewBox="0 0 25 25" fill="none" xmlns="http://www.w3.org/2000/svg">
<g opacity="0.1">
<rect width="25" height="25" fill="white"/>
<path d="M13 9.5V19.5M7 12.5H19V17.5C19 18.0304 18.7893 18.5391 18.4142 18.9142C18.0391 19.2893 17.5304 19.5 17 19.5H9C8.46957 19.5 7.96086 19.2893 7.58579 18.9142C7.21071 18.5391 7 18.0304 7 17.5V12.5Z" stroke="black" stroke-linecap="round" stroke-linejoin="round"/>
<path d="M13 9.49992H10C9.219 8.71892 9.219 7.28092 10 6.49992C10.781 5.71892 13 5.99992 13 7.49992M13 9.49992V7.49992M13 9.49992H16C16.781 8.71892 16.781 7.28092 16 6.49992C15.219 5.71892 13 5.99992 13 7.49992M7 9.49992H19C19.2652 9.49992 19.5196 9.60528 19.7071 9.79281C19.8946 9.98035 20 10.2347 20 10.4999V11.4999C20 11.7651 19.8946 12.0195 19.7071 12.207C19.5196 12.3946 19.2652 12.4999 19 12.4999H7C6.73478 12.4999 6.48043 12.3946 6.29289 12.207C6.10536 12.0195 6 11.7651 6 11.4999V10.4999C6 10.2347 6.10536 9.98035 6.29289 9.79281C6.48043 9.60528 6.73478 9.49992 7 9.49992Z" stroke="black" stroke-linecap="round" stroke-linejoin="round"/>
</g>
</svg>
