<svg width="25" height="25" viewBox="0 0 25 25" fill="none" xmlns="http://www.w3.org/2000/svg">
<g opacity="0.1">
<rect width="25" height="25" fill="#F7FAFF"/>
<path d="M11.5 16.5H13.5M11.5 12H13.5M11.5 7.5H13.5M21 17.4C21 19.097 21 19.946 20.35 20.473C19.698 21 18.65 21 16.556 21H15.444C13.349 21 12.302 21 11.651 20.473C11 19.946 11 19.097 11 17.4V6.6C11 4.903 11 4.054 11.65 3.527C12.303 3 13.35 3 15.445 3H16.557C18.652 3 19.699 3 20.35 3.527C21.001 4.054 21 4.903 21 6.6V17.4ZM3 5.041C3 4.079 3 3.598 3.293 3.299C3.586 3 4.057 3 5 3C5.943 3 6.414 3 6.707 3.299C7 3.598 7 4.079 7 5.04V15.887C7 16.794 7 17.247 6.924 17.687C6.85475 18.0882 6.73862 18.4799 6.578 18.854C6.402 19.262 6.156 19.639 5.663 20.394C5.443 20.731 5.333 20.899 5.195 20.959C5.13331 20.9851 5.067 20.9986 5 20.9986C4.933 20.9986 4.86669 20.9851 4.805 20.959C4.667 20.899 4.557 20.731 4.337 20.394C3.844 19.639 3.597 19.262 3.422 18.854C3.26138 18.4799 3.14525 18.0882 3.076 17.687C3 17.248 3 16.795 3 15.888V5.041Z" stroke="#1E1D1D" stroke-width="1.5" stroke-linecap="round" stroke-linejoin="round"/>
<path d="M7 7C7 7.552 6.105 8 5 8C3.895 8 3 7.552 3 7" stroke="#1E1D1D" stroke-width="1.5" stroke-linecap="round" stroke-linejoin="round"/>
</g>
</svg>
