<svg width="25" height="25" viewBox="0 0 25 25" fill="none" xmlns="http://www.w3.org/2000/svg">
<g opacity="0.1">
<rect width="25" height="25" fill="#F7FAFF"/>
<path d="M2 19V13C2 12.55 2.09167 12.1417 2.275 11.775C2.45833 11.4083 2.7 11.0833 3 10.8V8C3 7.16667 3.29167 6.45833 3.875 5.875C4.45833 5.29167 5.16667 5 6 5H10C10.3833 5 10.7417 5.071 11.075 5.213C11.4083 5.355 11.7167 5.55067 12 5.8C12.2833 5.55 12.5917 5.35433 12.925 5.213C13.2583 5.07167 13.6167 5.00067 14 5H18C18.8333 5 19.5417 5.29167 20.125 5.875C20.7083 6.45833 21 7.16667 21 8V10.8C21.3 11.0833 21.5417 11.4083 21.725 11.775C21.9083 12.1417 22 12.55 22 13V19H20V17H4V19H2ZM13 10H19V8C19 7.71667 18.904 7.47933 18.712 7.288C18.52 7.09667 18.2827 7.00067 18 7H14C13.7167 7 13.4793 7.096 13.288 7.288C13.0967 7.48 13.0007 7.71733 13 8V10ZM5 10H11V8C11 7.71667 10.904 7.47933 10.712 7.288C10.52 7.09667 10.2827 7.00067 10 7H6C5.71667 7 5.47933 7.096 5.288 7.288C5.09667 7.48 5.00067 7.71733 5 8V10ZM4 15H20V13C20 12.7167 19.904 12.4793 19.712 12.288C19.52 12.0967 19.2827 12.0007 19 12H5C4.71667 12 4.47933 12.096 4.288 12.288C4.09667 12.48 4.00067 12.7173 4 13V15Z" fill="black"/>
</g>
</svg>
