<svg width="30" height="31" viewBox="0 0 30 31" fill="none" xmlns="http://www.w3.org/2000/svg">
<path d="M15 23.9821L11.875 20.2321V16.4821H18.125V20.2321L15 23.9821Z" fill="#FF9800"/>
<path d="M20.625 13.9821C21.3154 13.9821 21.875 13.4224 21.875 12.7321C21.875 12.0417 21.3154 11.4821 20.625 11.4821C19.9346 11.4821 19.375 12.0417 19.375 12.7321C19.375 13.4224 19.9346 13.9821 20.625 13.9821Z" fill="#FFA726"/>
<path d="M9.375 13.9821C10.0654 13.9821 10.625 13.4224 10.625 12.7321C10.625 12.0417 10.0654 11.4821 9.375 11.4821C8.68464 11.4821 8.125 12.0417 8.125 12.7321C8.125 13.4224 8.68464 13.9821 9.375 13.9821Z" fill="#FFA726"/>
<path d="M20.625 8.98209C20.625 4.23209 9.375 5.85709 9.375 8.98209V13.3571C9.375 16.4821 11.875 18.9821 15 18.9821C18.125 18.9821 20.625 16.4821 20.625 13.3571V8.98209Z" fill="#FFB74D"/>
<path d="M15 3.35706C11.1875 3.35706 8.75 6.41956 8.75 10.2321V11.6696L10 12.7321V9.60706L17.5 7.10706L20 9.60706V12.7321L21.25 11.6696V10.2321C21.25 7.73206 20.625 5.23206 17.5 4.60706L16.875 3.35706H15Z" fill="#FF5722"/>
<path d="M17.5 13.3571C17.8452 13.3571 18.125 13.0772 18.125 12.7321C18.125 12.3869 17.8452 12.1071 17.5 12.1071C17.1548 12.1071 16.875 12.3869 16.875 12.7321C16.875 13.0772 17.1548 13.3571 17.5 13.3571Z" fill="#784719"/>
<path d="M12.5 13.3571C12.8452 13.3571 13.125 13.0772 13.125 12.7321C13.125 12.3869 12.8452 12.1071 12.5 12.1071C12.1548 12.1071 11.875 12.3869 11.875 12.7321C11.875 13.0772 12.1548 13.3571 12.5 13.3571Z" fill="#784719"/>
<path d="M18.125 20.2321L15 20.8571L11.875 20.2321C11.875 20.2321 5 21.4821 5 28.3571H25C25 21.4821 18.125 20.2321 18.125 20.2321Z" fill="#CFD8DC"/>
<path d="M14.375 22.7321L13.75 28.3571H16.25L15.625 22.7321L16.25 22.1071L15 20.8571L13.75 22.1071L14.375 22.7321Z" fill="#3F51B5"/>
</svg>
