<svg width="25" height="25" viewBox="0 0 25 25" fill="none" xmlns="http://www.w3.org/2000/svg">
<g clip-path="url(#clip0_190_1821)">
<rect width="24" height="24" transform="translate(0.5 0.5)" fill="#5E5E5E"/>
<path fill-rule="evenodd" clip-rule="evenodd" d="M12.3786 5.99989C11.4236 6.11689 10.5186 6.45589 10.1366 6.76989C7.90858 8.61189 6.65058 11.0469 5.99758 13.1699C5.71626 14.0693 5.52794 14.9951 5.43558 15.9329C5.40158 16.3159 5.37058 16.7169 5.42858 17.0999C5.81158 17.5339 6.35358 17.8489 6.85658 18.1189C7.90758 18.6839 9.48658 19.2699 11.6096 19.5059C12.8116 19.6399 14.3296 19.7159 15.7296 19.6039C17.1826 19.4869 18.2966 19.1819 18.8746 18.7189C19.8486 17.9399 20.0946 17.0309 20.0056 16.2349C19.9106 15.3789 19.4296 14.6549 18.9456 14.3319C18.1106 13.7759 17.1706 13.7199 16.2846 13.9519C15.3726 14.1919 14.6236 14.7119 14.2696 15.1379C14.1808 15.245 14.0706 15.3325 13.946 15.3946C13.8215 15.4567 13.6853 15.4922 13.5463 15.4987C13.4073 15.5052 13.2685 15.4826 13.1387 15.4323C13.0089 15.3821 12.891 15.3053 12.7926 15.2069C12.2426 14.6569 11.3076 14.4969 10.0546 15.3319C9.91788 15.4232 9.76078 15.4794 9.59719 15.4954C9.4336 15.5115 9.26857 15.4871 9.11669 15.4242C8.96482 15.3613 8.83079 15.2619 8.72646 15.1349C8.62214 15.0079 8.55074 14.8571 8.51858 14.6959C8.23258 13.2619 8.38158 11.7379 8.64558 10.4809C8.91158 9.22189 9.31158 8.13889 9.60558 7.55289C9.68872 7.38701 9.81637 7.24753 9.97426 7.15006C10.1321 7.05258 10.314 7.00096 10.4996 7.00096C10.6851 7.00096 10.867 7.05258 11.0249 7.15006C11.1828 7.24753 11.3104 7.38701 11.3936 7.55289C11.5966 7.95689 11.9676 8.31889 12.3996 8.47089C12.7346 8.25989 13.0256 7.96489 13.2616 7.64989C13.6956 7.07189 13.8406 6.52489 13.6476 6.04189C13.2556 5.90189 12.7816 5.95089 12.3786 5.99989ZM13.8616 4.03589C14.3456 4.12889 15.0526 4.37089 15.3936 5.05289C16.1406 6.54689 15.5236 7.96689 14.8616 8.84989C14.4296 9.42589 13.8736 9.96789 13.2266 10.2999C13.0916 10.3699 12.8166 10.4999 12.4996 10.4999C11.9086 10.4999 11.3296 10.2309 10.8546 9.89489C10.7646 10.2009 10.6776 10.5369 10.6026 10.8929C10.4542 11.5759 10.3739 12.272 10.3626 12.9709C11.4156 12.6309 12.4926 12.6669 13.4206 13.1909C14.1175 12.6424 14.9198 12.2431 15.7776 12.0179C17.0776 11.6769 18.6376 11.7239 20.0546 12.6679C21.0696 13.3449 21.8386 14.6199 21.9936 16.0149C22.1556 17.4689 21.6506 19.0589 20.1236 20.2809C19.0456 21.1429 17.4026 21.4759 15.8906 21.5969C14.3256 21.7229 12.6726 21.6369 11.3896 21.4939C9.01158 21.2299 7.18558 20.5659 5.90958 19.8809C5.07258 19.4309 3.92758 18.8089 3.56458 17.8559C3.31958 17.2099 3.38358 16.4259 3.44358 15.7539C3.52358 14.8729 3.71958 13.7729 4.08658 12.5809C4.81858 10.2019 6.25158 7.38689 8.86258 5.22889C9.66558 4.56489 11.0096 4.15289 12.1346 4.01489C12.7146 3.94389 13.3246 3.93389 13.8616 4.03589Z" fill="#474747"/>
</g>
<defs>
<clipPath id="clip0_190_1821">
<rect width="24" height="24" fill="white" transform="translate(0.5 0.5)"/>
</clipPath>
</defs>
</svg>
