<svg width="25" height="25" viewBox="0 0 25 25" fill="none" xmlns="http://www.w3.org/2000/svg">
<g opacity="0.1">
<rect width="25" height="25" fill="white"/>
<path d="M12.4283 4.21198C12.3103 4.10704 12.1578 4.04907 11.9998 4.04907C11.8419 4.04907 11.6894 4.10704 11.5713 4.21198C10.7795 4.91431 10.1977 5.82223 9.89036 6.83507C9.58305 7.8479 9.56228 8.92606 9.83035 9.94998C8.56123 9.20016 7.09019 8.86394 5.62135 8.98798C5.53416 8.99515 5.44926 9.01951 5.37153 9.05964C5.2938 9.09977 5.22478 9.15489 5.16845 9.22182C5.11212 9.28874 5.06959 9.36616 5.04331 9.4496C5.01704 9.53304 5.00753 9.62085 5.01535 9.70798C5.13935 11.073 5.77935 12.428 6.66635 13.478C6.31825 13.4553 5.96894 13.4586 5.62135 13.488C5.53416 13.4952 5.44926 13.5195 5.37153 13.5596C5.2938 13.5998 5.22478 13.6549 5.16845 13.7218C5.11212 13.7887 5.06959 13.8662 5.04331 13.9496C5.01704 14.033 5.00753 14.1209 5.01535 14.208C5.15955 15.7907 5.89016 17.2623 7.06374 18.3339C8.23733 19.4056 9.7691 19.9998 11.3583 20H12.6413C14.2303 19.9996 15.7617 19.4054 16.935 18.334C18.1083 17.2626 18.8389 15.7913 18.9833 14.209C18.9913 14.1218 18.9819 14.0339 18.9557 13.9503C18.9295 13.8667 18.887 13.7892 18.8306 13.7222C18.7743 13.6551 18.7052 13.5999 18.6274 13.5597C18.5496 13.5195 18.4646 13.4951 18.3773 13.488C18.0297 13.4586 17.6804 13.4553 17.3323 13.478C18.2193 12.428 18.8593 11.073 18.9823 9.70798C18.99 9.62095 18.9805 9.53327 18.9542 9.44994C18.9279 9.36662 18.8855 9.2893 18.8293 9.22242C18.7731 9.15553 18.7042 9.10039 18.6267 9.06016C18.5491 9.01993 18.4644 8.9954 18.3773 8.98798C16.9088 8.86415 15.4382 9.20036 14.1693 9.94998C14.4375 8.92615 14.4169 7.84805 14.1098 6.83522C13.8027 5.82239 13.22 4.91442 12.4283 4.21198ZM12.0003 16.428C11.1451 15.2416 9.94652 14.346 8.56635 13.862L8.53135 13.836C7.33035 13.02 6.31435 11.5 6.05735 9.96598C7.56254 9.92668 9.02939 10.4436 10.1773 11.418C10.9363 12.061 11.1453 12.648 11.3323 13.176C11.4003 13.366 11.4653 13.549 11.5523 13.723C11.5938 13.8062 11.6577 13.8762 11.7367 13.9251C11.8158 13.974 11.9069 13.9999 11.9998 13.9999C12.0928 13.9999 12.1839 13.974 12.263 13.9251C12.342 13.8762 12.4059 13.8062 12.4473 13.723C12.5343 13.549 12.5993 13.366 12.6673 13.175C12.8543 12.649 13.0633 12.061 13.8233 11.418C14.9709 10.4435 16.4374 9.9262 17.9423 9.96498C17.6853 11.5 16.6693 13.019 15.4683 13.836L15.4333 13.862C14.0535 14.3461 12.8554 15.2417 12.0003 16.428ZM11.3583 19C10.0791 18.9996 8.8421 18.5425 7.86991 17.7112C6.89772 16.8798 6.25425 15.7286 6.05535 14.465C7.17214 14.4363 8.27553 14.7134 9.24629 15.2663C10.217 15.8192 11.0183 16.6268 11.5633 17.602C11.6067 17.6796 11.6701 17.7443 11.7468 17.7894C11.8235 17.8344 11.9109 17.8581 11.9998 17.8581C12.0888 17.8581 12.1762 17.8344 12.2529 17.7894C12.3296 17.7443 12.393 17.6796 12.4363 17.602C12.9814 16.6268 13.7826 15.8192 14.7534 15.2663C15.7242 14.7134 16.8276 14.4363 17.9443 14.465C17.7454 15.7288 17.1018 16.8801 16.1294 17.7115C15.157 18.5429 13.9197 18.9998 12.6403 19H11.3583ZM11.9993 11.816C11.1318 10.9301 10.6459 9.73946 10.6459 8.49948C10.6459 7.2595 11.1318 6.06889 11.9993 5.18298C12.8669 6.06889 13.3528 7.2595 13.3528 8.49948C13.3528 9.73946 12.8669 10.9301 11.9993 11.816Z" fill="black"/>
</g>
</svg>
